<svg display="none" xmlns="http://www.w3.org/2000/svg">

  <symbol id="facebook" viewBox="0 0 14 25">
    <path d="M8.64758 25H4.69753C4.03774 25 3.50103 24.456 3.50103 23.7873V14.7572H1.19649C0.53671 14.7572 0 14.213 0 13.5445V9.67503C0 9.00631 0.53671 8.46233 1.19649 8.46233H3.50103V6.52466C3.50103 4.60339 4.09627 2.96879 5.2222 1.79787C6.3532 0.621605 7.93378 0 9.79307 0L12.8056 0.00495908C13.4642 0.00610352 14 0.550079 14 1.21765V4.81033C14 5.47905 13.4635 6.02303 12.8039 6.02303L10.7756 6.02379C10.157 6.02379 9.99952 6.14948 9.96583 6.18801C9.91032 6.25191 9.84426 6.43253 9.84426 6.9313V8.46214H12.6515C12.8628 8.46214 13.0675 8.51498 13.2435 8.61454C13.6231 8.8295 13.859 9.23595 13.859 9.67522L13.8575 13.5447C13.8575 14.213 13.3208 14.757 12.661 14.757H9.84426V23.7873C9.84426 24.456 9.30736 25 8.64758 25ZM4.94707 23.5344H8.39804V14.101C8.39804 13.6545 8.75654 13.2914 9.1969 13.2914H12.4115L12.4128 9.92794H9.19671C8.75635 9.92794 8.39804 9.56478 8.39804 9.11827V6.9313C8.39804 6.35872 8.45544 5.70755 8.88187 5.21812C9.39713 4.62646 10.2092 4.55818 10.7752 4.55818L12.554 4.55742V1.47018L9.79195 1.46561C6.80391 1.46561 4.94707 3.40424 4.94707 6.52466V9.11827C4.94707 9.56459 4.58876 9.92794 4.1484 9.92794H1.44603V13.2914H4.1484C4.58876 13.2914 4.94707 13.6545 4.94707 14.101V23.5344ZM12.8028 1.47057H12.8029H12.8028Z" fill="white" />
  </symbol>

  <symbol id="instagram" viewBox="0 0 26 26">
    <path d="M18.3957 0.0492554H6.82775C3.06287 0.0492554 0 3.11212 0 6.87701V18.4451C0 22.2098 3.06287 25.2727 6.82775 25.2727H18.3959C22.1606 25.2727 25.2234 22.2098 25.2234 18.4451V6.87701C25.2234 3.11212 22.1606 0.0492554 18.3957 0.0492554V0.0492554ZM23.7447 18.4451C23.7447 21.3944 21.3452 23.794 18.3957 23.794H6.82775C3.87823 23.794 1.4787 21.3944 1.4787 18.4451V6.87701C1.4787 3.92749 3.87823 1.52796 6.82775 1.52796H18.3959C21.3452 1.52796 23.7447 3.92749 23.7447 6.87701V18.4451Z" fill="white" />
    <path d="M12.6117 5.76414C8.80869 5.76414 5.71484 8.85799 5.71484 12.661C5.71484 16.464 8.80869 19.5578 12.6117 19.5578C16.4147 19.5578 19.5085 16.464 19.5085 12.661C19.5085 8.85799 16.4147 5.76414 12.6117 5.76414ZM12.6117 18.0791C9.62425 18.0791 7.19355 15.6486 7.19355 12.661C7.19355 9.67354 9.62425 7.24284 12.6117 7.24284C15.5993 7.24284 18.0298 9.67354 18.0298 12.661C18.0298 15.6486 15.5993 18.0791 12.6117 18.0791Z" fill="white" />
    <path d="M19.6735 3.31477C18.5496 3.31477 17.6356 4.22905 17.6356 5.3527C17.6356 6.47655 18.5496 7.39083 19.6735 7.39083C20.7973 7.39083 21.7116 6.47655 21.7116 5.3527C21.7116 4.22885 20.7973 3.31477 19.6735 3.31477ZM19.6735 5.91193C19.3652 5.91193 19.1143 5.66099 19.1143 5.3527C19.1143 5.04422 19.3652 4.79347 19.6735 4.79347C19.982 4.79347 20.2329 5.04422 20.2329 5.3527C20.2329 5.66099 19.982 5.91193 19.6735 5.91193Z" fill="white" />
  </symbol>

  <symbol id="telegram" viewBox="0 0 25 19">
    <path d="M24.7936 0.329932C24.5487 0.0331927 24.1427 -0.0768511 23.7816 0.0552015L0.849204 8.29881C0.391059 8.46444 0.069481 8.8661 0.00978113 9.34707C-0.0493466 9.82576 0.16275 10.2902 0.560622 10.5576L3.83859 12.7835C4.15616 12.9992 4.56452 13.0223 4.9046 12.8438L12.0152 9.11389L6.47339 13.2301C6.21323 13.4234 6.05778 13.7317 6.05778 14.0547V17.8675C6.05778 18.2608 6.27465 18.6211 6.62369 18.8082C6.97331 18.9953 7.39559 18.9767 7.72766 18.7589L10.2181 17.1156L12.6671 18.7767C12.8817 18.923 13.1373 19 13.3951 19C13.4823 19 13.5699 18.9911 13.6561 18.9732C14 18.9019 14.3042 18.6905 14.4909 18.3934L24.8663 1.37497C25.0683 1.0473 25.0393 0.627998 24.7936 0.329932ZM13.3404 17.4689L10.8042 15.7486C10.6278 15.6287 10.4245 15.5687 10.2213 15.5687C10.0226 15.5687 9.82364 15.6262 9.6495 15.7412L7.52339 17.1441V14.2698L17.309 7.00143C17.746 6.6768 17.856 6.08598 17.5648 5.62721C17.2734 5.16844 16.6899 5.01343 16.2075 5.26653L4.45065 11.4337L1.67814 9.55103L22.7957 1.95991L13.3404 17.4689Z" fill="white" />
  </symbol>

  <symbol id="whatsapp" viewBox="0 0 26 26">
    <path d="M21.6408 3.63191C19.3304 1.32148 16.2592 0.0492554 12.9916 0.0492554C12.9914 0.0492554 12.9907 0.0492554 12.9905 0.0492554C11.3743 0.0494478 9.79942 0.362355 8.30975 0.979509C6.81988 1.59666 5.48511 2.48901 4.34221 3.63191C2.03197 5.94215 0.759755 9.01387 0.759755 12.2811C0.759755 14.2296 1.22989 16.1659 2.12069 17.8911L0.0646627 23.7648C-0.0802445 24.1791 0.0223259 24.6294 0.332924 24.9398C0.550188 25.1573 0.836154 25.2727 1.1302 25.2727C1.25625 25.2727 1.38365 25.2516 1.50796 25.2081L7.38161 23.1522C9.10683 24.043 11.0432 24.5132 12.9916 24.5132C16.2589 24.5132 19.3304 23.2408 21.6408 20.9305C23.9511 18.6203 25.2235 15.5486 25.2235 12.2813C25.2235 9.01387 23.9513 5.94215 21.6408 3.63191ZM20.5947 19.8844C18.5639 21.9154 15.8636 23.0337 12.9916 23.0337C11.2346 23.0337 9.48921 22.5992 7.94392 21.7767C7.66373 21.6277 7.33254 21.6021 7.03522 21.7062L1.69886 23.5739L3.56668 18.2375C3.67079 17.9398 3.64501 17.6086 3.49606 17.3286C2.67376 15.7837 2.23904 14.0383 2.23904 12.2811C2.23904 9.40914 3.3575 6.70883 5.38832 4.67801C7.41894 2.64739 10.1189 1.52893 12.9907 1.52854H12.9916C15.8638 1.52854 18.5639 2.647 20.5947 4.67801C22.6257 6.70883 23.7442 9.40895 23.7442 12.2811C23.7442 15.1533 22.6257 17.8536 20.5947 19.8844Z" fill="white" />
    <path d="M17.5374 13.3738C16.9748 12.8111 16.0591 12.8111 15.4964 13.3738L14.881 13.9892C13.3528 13.1565 12.1162 11.9199 11.2833 10.3917L11.8988 9.77632C12.4617 9.21362 12.4617 8.29799 11.8988 7.7353L10.2403 6.07685C9.67763 5.51416 8.762 5.51416 8.1993 6.07685L6.87262 7.40353C6.11268 8.16348 6.07477 9.46995 6.76582 11.0824C7.36585 12.4824 8.46391 14.0212 9.85775 15.415C11.2516 16.8088 12.7903 17.9069 14.1903 18.5069C14.9564 18.8352 15.6533 18.999 16.2554 18.999C16.9207 18.999 17.4703 18.7991 17.8692 18.4001L19.1959 17.0732V17.0734C19.4686 16.8008 19.6187 16.4384 19.6187 16.0529C19.6187 15.6673 19.4686 15.3049 19.1959 15.0324L17.5374 13.3738ZM16.8231 17.354C16.6062 17.5709 15.9392 17.6469 14.7732 17.1473C13.542 16.6197 12.1678 15.6328 10.9039 14.3689C9.63991 13.1049 8.65327 11.7309 8.1256 10.4997C7.62583 9.3337 7.70185 8.66651 7.91872 8.44964L9.22 7.14836L10.8273 8.75581L10.0569 9.52634C9.70861 9.87465 9.62451 10.4029 9.84794 10.8409C10.8607 12.8269 12.4459 14.412 14.4319 15.4248C14.87 15.6482 15.3983 15.5643 15.7466 15.2158L16.5169 14.4455L18.1244 16.0529L16.8231 17.354Z" fill="white" />
  </symbol>

</svg>
